<svg width="41" height="39" viewBox="0 0 41 39" fill="none" xmlns="http://www.w3.org/2000/svg">
<g filter="url(#filter0_d_149_1094)">
<path d="M20.1 28.45L18.65 27.15C16.9666 25.6333 15.575 24.325 14.475 23.225C13.375 22.125 12.5 21.1373 11.85 20.262C11.2 19.3867 10.746 18.5827 10.488 17.85C10.23 17.1173 10.1006 16.3673 10.1 15.6C10.1 14.0333 10.625 12.725 11.675 11.675C12.725 10.625 14.0333 10.1 15.6 10.1C16.4666 10.1 17.2916 10.2833 18.075 10.65C18.8583 11.0167 19.5333 11.5333 20.1 12.2C20.6666 11.5333 21.3416 11.0167 22.125 10.65C22.9083 10.2833 23.7333 10.1 24.6 10.1C26.1666 10.1 27.475 10.625 28.525 11.675C29.575 12.725 30.1 14.0333 30.1 15.6C30.1 16.3667 29.971 17.1167 29.713 17.85C29.455 18.5833 29.0006 19.3873 28.35 20.262C27.6993 21.1367 26.8243 22.1243 25.725 23.225C24.6256 24.3257 23.234 25.634 21.55 27.15L20.1 28.45Z" fill="#FF0000"/>
</g>
<defs>
<filter id="filter0_d_149_1094" x="-2.00002" y="-2.64999" width="44.2" height="44.2" filterUnits="userSpaceOnUse" color-interpolation-filters="sRGB">
<feFlood flood-opacity="0" result="BackgroundImageFix"/>
<feColorMatrix in="SourceAlpha" type="matrix" values="0 0 0 0 0 0 0 0 0 0 0 0 0 0 0 0 0 0 127 0" result="hardAlpha"/>
<feOffset/>
<feGaussianBlur stdDeviation="5.05"/>
<feComposite in2="hardAlpha" operator="out"/>
<feColorMatrix type="matrix" values="0 0 0 0 0 0 0 0 0 0.596078 0 0 0 0 0.521569 0 0 0 1 0"/>
<feBlend mode="normal" in2="BackgroundImageFix" result="effect1_dropShadow_149_1094"/>
<feBlend mode="normal" in="SourceGraphic" in2="effect1_dropShadow_149_1094" result="shape"/>
</filter>
</defs>
</svg>
