<svg width="32" height="33" viewBox="0 0 32 33" fill="none" xmlns="http://www.w3.org/2000/svg">
<path d="M16 27.9469C15.6889 27.9469 15.3725 27.8896 15.0507 27.775C14.7289 27.6604 14.4454 27.4771 14.2 27.225L11.9 25.0594C9.54447 22.8364 7.41647 20.6309 5.51602 18.4429C3.61558 16.2548 2.6658 13.8426 2.66669 11.2062C2.66669 9.05207 3.36669 7.25311 4.76669 5.80936C6.16669 4.36561 7.91113 3.64374 10 3.64374C11.1778 3.64374 12.2889 3.90132 13.3334 4.41649C14.3778 4.93165 15.2667 5.63657 16 6.53124C16.7334 5.63749 17.6222 4.93303 18.6667 4.41786C19.7111 3.9027 20.8222 3.64465 22 3.64374C24.0889 3.64374 25.8334 4.36561 27.2334 5.80936C28.6334 7.25311 29.3334 9.05207 29.3334 11.2062C29.3334 13.8417 28.3889 16.2594 26.5 18.4594C24.6111 20.6594 22.4667 22.8708 20.0667 25.0937L17.8 27.225C17.5556 27.4771 17.2725 27.6604 16.9507 27.775C16.6289 27.8896 16.312 27.9469 16 27.9469ZM14.7334 9.28124C14.0889 8.34165 13.4 7.62528 12.6667 7.13211C11.9334 6.63895 11.0445 6.39282 10 6.39374C8.66669 6.39374 7.55558 6.85207 6.66669 7.76874C5.7778 8.6854 5.33335 9.83124 5.33335 11.2062C5.33335 12.3979 5.74447 13.6643 6.56669 15.0054C7.38891 16.3464 8.37247 17.6467 9.51735 18.9062C10.6622 20.1657 11.84 21.3459 13.0507 22.4469C14.2614 23.5478 15.2445 24.453 16 25.1625C16.7556 24.4521 17.7391 23.5469 18.9507 22.4469C20.1622 21.3469 21.34 20.1667 22.484 18.9062C23.628 17.6458 24.6111 16.3455 25.4334 15.0054C26.2556 13.6652 26.6667 12.3988 26.6667 11.2062C26.6667 9.83124 26.2222 8.6854 25.3334 7.76874C24.4445 6.85207 23.3334 6.39374 22 6.39374C20.9556 6.39374 20.0667 6.64032 19.3334 7.13349C18.6 7.62665 17.9111 8.34257 17.2667 9.28124C17.1111 9.5104 16.9222 9.68228 16.7 9.79686C16.4778 9.91145 16.2445 9.96874 16 9.96874C15.7556 9.96874 15.5222 9.91145 15.3 9.79686C15.0778 9.68228 14.8889 9.5104 14.7334 9.28124Z" fill="black"/>
</svg>
