<svg width="64" height="64" viewBox="0 0 64 64" fill="none" xmlns="http://www.w3.org/2000/svg">
<path d="M13.3333 56C11.8667 56 10.6 55.4889 9.53333 54.4667C8.51111 53.4 8 52.1333 8 50.6667V13.3333C8 11.8667 8.51111 10.6222 9.53333 9.6C10.6 8.53333 11.8667 8 13.3333 8H50.6667C52.1333 8 53.3778 8.53333 54.4 9.6C55.4667 10.6222 56 11.8667 56 13.3333V50.6667C56 52.1333 55.4667 53.4 54.4 54.4667C53.3778 55.4889 52.1333 56 50.6667 56H13.3333ZM13.3333 50.6667H50.6667V13.3333H13.3333V50.6667ZM16 45.3333H48L38 32L30 42.6667L24 34.6667L16 45.3333ZM13.3333 50.6667V13.3333V50.6667Z" fill="#79747E"/>
</svg>
